<svg width="18" height="14" viewBox="0 0 18 14" fill="none" xmlns="http://www.w3.org/2000/svg">
<path d="M9.39314 8.95349L15.9 3.3142V11.5C15.9 11.7206 15.7206 11.9 15.5 11.9H2.50001C2.27936 11.9 2.1 11.7206 2.1 11.5V3.3142L8.60686 8.95349L8.60694 8.95355C8.71997 9.05132 8.8601 9.09999 9 9.09999C9.13988 9.09999 9.28002 9.05137 9.39308 8.95354L9.39314 8.95349ZM15.5 0.9H2.50001C1.61763 0.9 0.9 1.61762 0.9 2.50001V11.5C0.9 12.3824 1.61763 13.1 2.50001 13.1H15.5C16.3824 13.1 17.1 12.3824 17.1 11.5V2.50001C17.1 1.61762 16.3824 0.9 15.5 0.9ZM9 7.70605L2.53174 2.09999H15.4682L9 7.70605Z" fill="#6A6868" stroke="#6A6868" stroke-width="0.2"/>
</svg>
