<svg width="15" height="15" viewBox="0 0 15 15" fill="none" xmlns="http://www.w3.org/2000/svg">
<g clip-path="url(#clip0)">
<path d="M14.9853 4.41004C14.9502 3.61303 14.8213 3.0651 14.6367 2.5903C14.4462 2.08632 14.1532 1.63511 13.7693 1.26001C13.3942 0.879078 12.94 0.583076 12.4419 0.395585C11.9643 0.210956 11.4192 0.0820702 10.6222 0.0469299C9.81927 0.00881367 9.56436 0 7.52783 0C5.4913 0 5.23639 0.00881367 4.43641 0.0439539C3.6394 0.0790941 3.09146 0.208094 2.61679 0.392609C2.11269 0.583076 1.66147 0.876102 1.28638 1.26001C0.905445 1.63511 0.609557 2.0893 0.421952 2.58744C0.237323 3.0651 0.108437 3.61006 0.0732971 4.40706C0.0351809 5.21002 0.0263672 5.46493 0.0263672 7.50147C0.0263672 9.538 0.0351809 9.79291 0.0703211 10.5929C0.105461 11.3899 0.234461 11.9378 0.419091 12.4126C0.609557 12.9166 0.905445 13.3678 1.28638 13.7429C1.66147 14.1239 2.11566 14.4199 2.61381 14.6073C3.09146 14.792 3.63642 14.9209 4.43355 14.956C5.23342 14.9913 5.48844 15 7.52497 15C9.5615 15 9.81641 14.9913 10.6164 14.956C11.4134 14.9209 11.9613 14.792 12.436 14.6073C13.4441 14.2176 14.2411 13.4206 14.6308 12.4126C14.8154 11.935 14.9444 11.3899 14.9795 10.5929C15.0146 9.79291 15.0235 9.538 15.0235 7.50147C15.0235 5.46493 15.0205 5.21002 14.9853 4.41004ZM13.6346 10.5343C13.6023 11.2668 13.4792 11.6624 13.3767 11.9262C13.1246 12.5796 12.606 13.0983 11.9525 13.3503C11.6888 13.4529 11.2904 13.5759 10.5606 13.6081C9.76948 13.6433 9.5322 13.652 7.53081 13.652C5.52942 13.652 5.28916 13.6433 4.50085 13.6081C3.76829 13.5759 3.3727 13.4529 3.10898 13.3503C2.78379 13.2301 2.48779 13.0397 2.24753 12.7906C1.99845 12.5473 1.80799 12.2543 1.6878 11.9291C1.58524 11.6654 1.46219 11.2668 1.43003 10.5373C1.39478 9.74609 1.38608 9.50869 1.38608 7.5073C1.38608 5.50591 1.39478 5.26565 1.43003 4.47746C1.46219 3.74489 1.58524 3.34931 1.6878 3.08559C1.80799 2.76028 1.99845 2.46439 2.2505 2.22402C2.49362 1.97495 2.78665 1.78448 3.11195 1.66441C3.37568 1.56185 3.77424 1.4388 4.50383 1.40652C5.295 1.37138 5.53239 1.36257 7.53367 1.36257C9.53803 1.36257 9.77532 1.37138 10.5636 1.40652C11.2962 1.4388 11.6918 1.56185 11.9555 1.66441C12.2807 1.78448 12.5767 1.97495 12.8169 2.22402C13.066 2.46726 13.2565 2.76028 13.3767 3.08559C13.4792 3.34931 13.6023 3.74776 13.6346 4.47746C13.6697 5.26863 13.6785 5.50591 13.6785 7.5073C13.6785 9.50869 13.6697 9.74311 13.6346 10.5343Z" fill="#6A6868"/>
<path d="M7.52785 3.64795C5.40055 3.64795 3.67456 5.37383 3.67456 7.50124C3.67456 9.62865 5.40055 11.3545 7.52785 11.3545C9.65527 11.3545 11.3811 9.62865 11.3811 7.50124C11.3811 5.37383 9.65527 3.64795 7.52785 3.64795ZM7.52785 10.0008C6.14777 10.0008 5.02832 8.88144 5.02832 7.50124C5.02832 6.12104 6.14777 5.00171 7.52785 5.00171C8.90805 5.00171 10.0274 6.12104 10.0274 7.50124C10.0274 8.88144 8.90805 10.0008 7.52785 10.0008Z" fill="#6A6868"/>
<path d="M12.4332 3.49576C12.4332 3.99253 12.0304 4.39533 11.5335 4.39533C11.0367 4.39533 10.6339 3.99253 10.6339 3.49576C10.6339 2.99887 11.0367 2.59619 11.5335 2.59619C12.0304 2.59619 12.4332 2.99887 12.4332 3.49576Z" fill="#6A6868"/>
</g>
<defs>
<clipPath id="clip0">
<rect width="15" height="15" fill="white"/>
</clipPath>
</defs>
</svg>
