<svg width="17" height="15" viewBox="0 0 17 15" fill="none" xmlns="http://www.w3.org/2000/svg">
<path d="M15.029 1.50816C15.1467 1.47438 15.2735 1.43393 15.4082 1.38551C15.2638 1.5636 15.0924 1.73053 14.8905 1.86574L14.6229 2.04498L14.6754 2.36276L14.6824 2.40557L14.76 2.89593L15.2509 2.82178C15.34 2.80833 15.4915 2.78394 15.6789 2.74585C15.4848 2.95512 15.2664 3.15868 15.0295 3.32964L14.8186 3.48182L14.8221 3.74185C14.8223 3.75168 14.8224 3.76066 14.8225 3.76906C14.8229 3.791 14.8231 3.80903 14.8231 3.82823C14.8231 3.86815 14.8226 3.90653 14.8213 3.94443L14.8209 3.95762L14.8211 3.97082C14.8225 4.04164 14.8231 4.11287 14.8231 4.18463C14.8231 9.91991 10.5384 14.5 5.33502 14.5C4.08639 14.5 2.89362 14.2379 1.80059 13.7604C2.6504 13.6213 3.36824 13.3487 3.93249 13.0629C4.40006 12.8261 4.76389 12.5794 5.01305 12.3899C5.13777 12.2951 5.2342 12.2142 5.30099 12.1555C5.3344 12.1261 5.36043 12.1023 5.37892 12.085L5.401 12.0641L5.40777 12.0575L5.41008 12.0552L5.41097 12.0543L5.41134 12.054C5.41151 12.0538 5.41167 12.0536 5.05966 11.6986L5.41167 12.0536L6.19753 11.2746L5.09349 11.1997C3.92792 11.1207 3.24957 10.555 2.85036 10.0108C2.76021 9.88791 2.68416 9.76568 2.62042 9.64989C2.72165 9.64448 2.81932 9.63517 2.90983 9.62412C3.09582 9.60143 3.26168 9.57014 3.38077 9.54469C3.44063 9.5319 3.48949 9.5204 3.52412 9.5119C3.54146 9.50765 3.55528 9.50413 3.5652 9.50156L3.5771 9.49845L3.58077 9.49747L3.58202 9.49713L3.5825 9.497L3.5827 9.49695C3.58279 9.49693 3.58288 9.4969 3.45206 9.01432L3.58288 9.4969L5.281 9.03657L3.59458 8.53506C2.23571 8.13096 1.62199 7.30911 1.33194 6.59948C1.25336 6.40725 1.19804 6.22145 1.15921 6.05223C1.28596 6.08692 1.40669 6.11311 1.51396 6.13318C1.70205 6.16838 1.86954 6.18836 1.99032 6.19962C2.05096 6.20527 2.1005 6.20879 2.13576 6.21092C2.15341 6.21199 2.16753 6.21271 2.17773 6.21319L2.19006 6.21373L2.19394 6.21387L2.19529 6.21392L2.19582 6.21394L2.19604 6.21395C2.19615 6.21395 2.19625 6.21396 2.21314 5.71424L2.19625 6.21396L3.75384 6.26662L2.5176 5.31763C1.35409 4.42445 1.12916 3.35043 1.18381 2.48149C1.20236 2.18645 1.25375 1.91471 1.31439 1.68317C4.14396 4.77699 7.34969 5.07802 8.31516 5.09353L8.92897 5.10339L8.81441 4.50029C8.78547 4.34796 8.76657 4.19045 8.7583 4.02938L8.75832 4.02937L8.75801 4.02439C8.75415 3.96149 8.75247 3.89623 8.75247 3.82823C8.75247 1.95154 10.1482 0.5 11.7876 0.5C12.6257 0.5 13.3908 0.872573 13.9466 1.48969L14.1263 1.68922L14.3919 1.64961C14.5512 1.62585 14.7675 1.58402 15.029 1.50816ZM15.029 1.50816C15.0288 1.50823 15.0285 1.5083 15.0283 1.50838L14.8904 1.02775M15.029 1.50816C15.0293 1.50808 15.0295 1.50801 15.0298 1.50793L14.8904 1.02775M14.8904 1.02775C15.1599 0.950489 15.4854 0.833709 15.8509 0.657282L14.8904 1.02775ZM7.81039 4.56361C7.81701 4.6049 7.82421 4.64601 7.83198 4.68691L8.32319 4.5936L8.33122 4.09366C8.30935 4.09331 8.28593 4.09278 8.26102 4.09203C8.26028 4.07971 8.25959 4.06738 8.25895 4.05503C8.25435 3.98003 8.25247 3.90435 8.25247 3.82823C8.25247 1.71359 9.83538 0 11.7876 0C12.7798 0 13.6762 0.442276 14.3182 1.15508L7.81039 4.56361Z" stroke="#6A6868" stroke-width="0.999999"/>
</svg>
