<svg width="19" height="14" viewBox="0 0 19 14" fill="none" xmlns="http://www.w3.org/2000/svg">
<path d="M18.1004 2.8695L18.1009 2.87159C18.2814 3.53849 18.3747 4.60721 18.4201 5.54615C18.4424 6.00793 18.4527 6.42554 18.4573 6.72773C18.4597 6.87872 18.4606 7.0006 18.4609 7.08444L18.4611 7.18049L18.4611 7.20497L18.4611 7.21096L18.4611 7.21234L18.4611 7.21263V7.21513V7.21514V7.21543L18.461 7.21682L18.461 7.2228L18.461 7.24721L18.4603 7.34289C18.4596 7.4264 18.4582 7.54778 18.4552 7.69815C18.4494 7.99911 18.4378 8.4151 18.4145 8.87532C18.3673 9.80959 18.2743 10.8766 18.1002 11.5468C17.9338 12.1697 17.4484 12.6585 16.8386 12.8251C16.5314 12.9066 15.9493 12.9761 15.2071 13.03C14.4779 13.0829 13.6345 13.1185 12.8312 13.1422C12.0287 13.166 11.2703 13.1779 10.7122 13.1838C10.4332 13.1868 10.2046 13.1883 10.0458 13.189L9.86255 13.1897L9.81485 13.1897L9.80278 13.1897L9.7998 13.1897H9.79908H9.79892L9.79888 13.6897L9.79885 13.1897H9.79869H9.79798L9.79501 13.1897L9.78299 13.1897L9.73543 13.1897L9.55267 13.189C9.39431 13.1882 9.16623 13.1867 8.88792 13.1836C8.33109 13.1774 7.57417 13.165 6.77278 13.1404C5.97057 13.1157 5.1279 13.0787 4.39834 13.0237C3.6548 12.9676 3.07097 12.8954 2.76133 12.8105L2.76062 12.8103C2.14997 12.644 1.66376 12.1546 1.49743 11.5309C1.32363 10.8692 1.2305 9.80282 1.18325 8.86583C1.15999 8.40465 1.14834 7.98723 1.14252 7.68506C1.13961 7.53409 1.13816 7.41216 1.13744 7.32826L1.1368 7.23211L1.13673 7.20757L1.13672 7.20156L1.13672 7.20016L1.13672 7.19988V7.19987V7.19984V7.19983L1.13672 7.19955L1.13672 7.19816L1.13673 7.19218L1.1368 7.16777L1.13743 7.07209C1.13816 6.98857 1.13961 6.86719 1.14252 6.71681C1.14834 6.41584 1.15999 5.99984 1.18325 5.5396C1.23046 4.60531 1.32352 3.53835 1.49758 2.86822C1.66409 2.24427 2.16569 1.74042 2.76029 1.57431C3.06783 1.49289 3.64941 1.42357 4.3905 1.36975C5.11972 1.31679 5.96314 1.28124 6.76643 1.25747C7.56892 1.23373 8.32737 1.22184 8.88546 1.2159C9.1644 1.21293 9.39305 1.21144 9.55182 1.2107L9.73508 1.21005L9.78278 1.20997L9.79484 1.20996L9.79783 1.20996L9.79855 1.20996L9.79871 1.20996L9.79874 0.709961L9.79877 1.20996L9.79894 1.20996L9.79965 1.20996L9.80263 1.20996L9.81468 1.20997L9.86237 1.21005L10.0456 1.21073C10.2043 1.2115 10.4329 1.21304 10.7118 1.21613C11.2699 1.22231 12.0282 1.23467 12.8305 1.25935C13.6337 1.28406 14.4768 1.32099 15.2057 1.37603C15.9489 1.43215 16.5301 1.50437 16.8352 1.58884L16.8371 1.58938C17.448 1.75582 17.9344 2.24548 18.1004 2.8695Z" stroke="#6A6868" stroke-width="0.999996"/>
<path d="M8.47314 4.68645L11.8266 6.87034L8.47314 9.05423V4.68645Z" stroke="#4D4B4B" stroke-width="0.999996"/>
</svg>
